<svg width="54.666626" height="49.333374" viewBox="0 0 54.6666 49.3334" fill="none" xmlns="http://www.w3.org/2000/svg" xmlns:xlink="http://www.w3.org/1999/xlink">
	<g>
		<path id="Vector" d="M2.78101 2.78101C3.28113 2.28101 3.95947 2 4.66663 2L10 2C10.7073 2 11.3855 2.28101 11.8856 2.78101C12.3857 3.28113 12.6666 3.95947 12.6666 4.66663L12.6666 15.3334C12.6666 16.0405 12.3857 16.7189 11.8856 17.219C11.3855 17.719 10.7073 18 10 18L4.66663 18C3.95947 18 3.28113 17.719 2.78101 17.219C2.28101 16.7189 2 16.0405 2 15.3334L2 4.66663C2 3.95947 2.28101 3.28113 2.78101 2.78101ZM38.2288 43.1046C39.229 44.1047 40.5856 44.6666 42 44.6666C43.4146 44.6666 44.771 44.1047 45.7712 43.1046C46.7715 42.1044 47.3334 40.7478 47.3334 39.3334C47.3334 37.9188 46.7715 36.5623 45.7712 35.5621C44.771 34.5619 43.4146 34 42 34C40.5856 34 39.229 34.5619 38.2288 35.5621C37.2285 36.5623 36.6666 37.9188 36.6666 39.3334C36.6666 40.7478 37.2285 42.1044 38.2288 43.1046ZM20.6666 7.33337L39.3334 7.33337C46.696 7.33337 52.6666 15.6907 52.6666 26L52.6666 39.3334L47.3334 39.3334M36.6666 39.3334L15.3334 39.3334M36.6666 7.33337L40.6666 26L52.6666 26M19.3334 20.6666L39.3334 20.6666M26 7.33337L26 20.6666M7.33337 18L7.33337 47.3334" stroke="#22C55E" stroke-opacity="1.000000" stroke-width="4.000000" stroke-linejoin="round"/>
	</g>
</svg>
